<?xml version="1.0" encoding="UTF-8"?>
<svg width="700pt" height="700pt" version="1.1" viewBox="0 0 700 700" xmlns="http://www.w3.org/2000/svg" xmlns:xlink="http://www.w3.org/1999/xlink">
 <defs>
  <symbol id="u" overflow="visible">
   <path d="m18.766-1.125c-0.96875 0.5-1.9805 0.875-3.0312 1.125-1.043 0.25781-2.1367 0.39062-3.2812 0.39062-3.3984 0-6.0898-0.94531-8.0781-2.8438-1.9922-1.9062-2.9844-4.4844-2.9844-7.7344 0-3.2578 0.99219-5.8359 2.9844-7.7344 1.9883-1.9062 4.6797-2.8594 8.0781-2.8594 1.1445 0 2.2383 0.13281 3.2812 0.39062 1.0508 0.25 2.0625 0.625 3.0312 1.125v4.2188c-0.98047-0.65625-1.9453-1.1406-2.8906-1.4531-0.94922-0.3125-1.9492-0.46875-3-0.46875-1.875 0-3.3516 0.60547-4.4219 1.8125-1.0742 1.1992-1.6094 2.8555-1.6094 4.9688 0 2.1055 0.53516 3.7617 1.6094 4.9688 1.0703 1.1992 2.5469 1.7969 4.4219 1.7969 1.0508 0 2.0508-0.14844 3-0.45312 0.94531-0.3125 1.9102-0.80078 2.8906-1.4688z"/>
  </symbol>
  <symbol id="b" overflow="visible">
   <path d="m13.734-11.141c-0.4375-0.19531-0.87109-0.34375-1.2969-0.4375-0.41797-0.10156-0.83984-0.15625-1.2656-0.15625-1.2617 0-2.2305 0.40625-2.9062 1.2188-0.67969 0.80469-1.0156 1.9531-1.0156 3.4531v7.0625h-4.8906v-15.312h4.8906v2.5156c0.625-1 1.3438-1.7266 2.1562-2.1875 0.82031-0.46875 1.8008-0.70312 2.9375-0.70312 0.16406 0 0.34375 0.011719 0.53125 0.03125 0.19531 0.011719 0.47656 0.039062 0.84375 0.078125z"/>
  </symbol>
  <symbol id="a" overflow="visible">
   <path d="m17.641-7.7031v1.4062h-11.453c0.125 1.1484 0.53906 2.0078 1.25 2.5781 0.70703 0.57422 1.7031 0.85938 2.9844 0.85938 1.0312 0 2.082-0.14844 3.1562-0.45312 1.082-0.3125 2.1914-0.77344 3.3281-1.3906v3.7656c-1.1562 0.4375-2.3125 0.76562-3.4688 0.98438-1.1562 0.22656-2.3125 0.34375-3.4688 0.34375-2.7734 0-4.9297-0.70312-6.4688-2.1094-1.5312-1.4062-2.2969-3.3789-2.2969-5.9219 0-2.5 0.75391-4.4609 2.2656-5.8906 1.5078-1.4375 3.582-2.1562 6.2188-2.1562 2.4062 0 4.332 0.73047 5.7812 2.1875 1.4453 1.4492 2.1719 3.3828 2.1719 5.7969zm-5.0312-1.625c0-0.92578-0.27344-1.6719-0.8125-2.2344-0.54297-0.57031-1.25-0.85938-2.125-0.85938-0.94922 0-1.7188 0.26562-2.3125 0.79688s-0.96484 1.2969-1.1094 2.2969z"/>
  </symbol>
  <symbol id="l" overflow="visible">
   <path d="m9.2188-6.8906c-1.0234 0-1.793 0.17188-2.3125 0.51562-0.51172 0.34375-0.76562 0.85547-0.76562 1.5312 0 0.625 0.20703 1.1172 0.625 1.4688 0.41406 0.34375 0.98828 0.51562 1.7188 0.51562 0.92578 0 1.7031-0.32812 2.3281-0.98438 0.63281-0.66406 0.95312-1.4922 0.95312-2.4844v-0.5625zm7.4688-1.8438v8.7344h-4.9219v-2.2656c-0.65625 0.92969-1.3984 1.6055-2.2188 2.0312-0.82422 0.41406-1.8242 0.625-3 0.625-1.5859 0-2.8711-0.45703-3.8594-1.375-0.99219-0.92578-1.4844-2.1289-1.4844-3.6094 0-1.7891 0.61328-3.1016 1.8438-3.9375 1.2383-0.84375 3.1797-1.2656 5.8281-1.2656h2.8906v-0.39062c0-0.76953-0.30859-1.332-0.92188-1.6875-0.61719-0.36328-1.5703-0.54688-2.8594-0.54688-1.0547 0-2.0312 0.10547-2.9375 0.3125-0.89844 0.21094-1.7305 0.52344-2.5 0.9375v-3.7344c1.0391-0.25 2.0859-0.44141 3.1406-0.57812 1.0625-0.13281 2.125-0.20312 3.1875-0.20312 2.7578 0 4.75 0.54688 5.9688 1.6406 1.2266 1.0859 1.8438 2.8555 1.8438 5.3125z"/>
  </symbol>
  <symbol id="c" overflow="visible">
   <path d="m7.7031-19.656v4.3438h5.0469v3.5h-5.0469v6.5c0 0.71094 0.14062 1.1875 0.42188 1.4375s0.83594 0.375 1.6719 0.375h2.5156v3.5h-4.1875c-1.9375 0-3.3125-0.39844-4.125-1.2031-0.80469-0.8125-1.2031-2.1797-1.2031-4.1094v-6.5h-2.4219v-3.5h2.4219v-4.3438z"/>
  </symbol>
  <symbol id="e" overflow="visible">
   <path d="m12.766-13.078v-8.2031h4.9219v21.281h-4.9219v-2.2188c-0.66797 0.90625-1.4062 1.5703-2.2188 1.9844s-1.7578 0.625-2.8281 0.625c-1.8867 0-3.4336-0.75-4.6406-2.25-1.2109-1.5-1.8125-3.4258-1.8125-5.7812 0-2.3633 0.60156-4.2969 1.8125-5.7969 1.207-1.5 2.7539-2.25 4.6406-2.25 1.0625 0 2 0.21484 2.8125 0.64062 0.82031 0.42969 1.5664 1.0859 2.2344 1.9688zm-3.2188 9.9219c1.0391 0 1.8359-0.37891 2.3906-1.1406 0.55078-0.76953 0.82812-1.8828 0.82812-3.3438 0-1.457-0.27734-2.5664-0.82812-3.3281-0.55469-0.76953-1.3516-1.1562-2.3906-1.1562-1.043 0-1.8398 0.38672-2.3906 1.1562-0.55469 0.76172-0.82812 1.8711-0.82812 3.3281 0 1.4609 0.27344 2.5742 0.82812 3.3438 0.55078 0.76172 1.3477 1.1406 2.3906 1.1406z"/>
  </symbol>
  <symbol id="k" overflow="visible">
   <path d="m10.5-3.1562c1.0508 0 1.8516-0.37891 2.4062-1.1406 0.55078-0.76953 0.82812-1.8828 0.82812-3.3438 0-1.457-0.27734-2.5664-0.82812-3.3281-0.55469-0.76953-1.3555-1.1562-2.4062-1.1562-1.0547 0-1.8594 0.38672-2.4219 1.1562-0.55469 0.77344-0.82812 1.8828-0.82812 3.3281 0 1.4492 0.27344 2.5586 0.82812 3.3281 0.5625 0.77344 1.3672 1.1562 2.4219 1.1562zm-3.25-9.9219c0.67578-0.88281 1.4219-1.5391 2.2344-1.9688 0.82031-0.42578 1.7656-0.64062 2.8281-0.64062 1.8945 0 3.4453 0.75 4.6562 2.25 1.207 1.5 1.8125 3.4336 1.8125 5.7969 0 2.3555-0.60547 4.2812-1.8125 5.7812-1.2109 1.5-2.7617 2.25-4.6562 2.25-1.0625 0-2.0078-0.21094-2.8281-0.625-0.8125-0.42578-1.5586-1.0859-2.2344-1.9844v2.2188h-4.8906v-21.281h4.8906z"/>
  </symbol>
  <symbol id="j" overflow="visible">
   <path d="m0.34375-15.312h4.8906l4.125 10.391 3.5-10.391h4.8906l-6.4375 16.766c-0.64844 1.6953-1.4023 2.8828-2.2656 3.5625-0.86719 0.6875-2 1.0312-3.4062 1.0312h-2.8438v-3.2188h1.5312c0.83203 0 1.4375-0.13672 1.8125-0.40625 0.38281-0.26172 0.67969-0.73047 0.89062-1.4062l0.14062-0.42188z"/>
  </symbol>
  <symbol id="i" overflow="visible">
   <path d="m10.75-12.516c0.82031 0 1.4453-0.17969 1.875-0.54688 0.4375-0.36328 0.65625-0.89844 0.65625-1.6094 0-0.69531-0.21875-1.2266-0.65625-1.5938-0.42969-0.375-1.0547-0.5625-1.875-0.5625h-2.9219v4.3125zm0.17188 8.9375c1.0625 0 1.8594-0.22266 2.3906-0.67188 0.53125-0.44531 0.79688-1.125 0.79688-2.0312 0-0.88281-0.26562-1.5469-0.79688-1.9844-0.52344-0.4375-1.3203-0.65625-2.3906-0.65625h-3.0938v5.3438zm4.8906-7.3438c1.1328 0.32422 2.0078 0.92969 2.625 1.8125 0.625 0.88672 0.9375 1.9688 0.9375 3.25 0 1.9688-0.66797 3.4375-2 4.4062-1.3359 0.96875-3.3555 1.4531-6.0625 1.4531h-8.7344v-20.406h7.8906c2.832 0 4.8828 0.42969 6.1562 1.2812 1.2812 0.85547 1.9219 2.2266 1.9219 4.1094 0 1-0.23438 1.8516-0.70312 2.5469-0.46875 0.6875-1.1484 1.2031-2.0312 1.5469z"/>
  </symbol>
  <symbol id="t" overflow="visible">
   <path d="m2.3594-15.312h4.8906v15.312h-4.8906zm0-5.9688h4.8906v4h-4.8906z"/>
  </symbol>
  <symbol id="h" overflow="visible">
   <path d="m17.75-9.3281v9.3281h-4.9219v-7.1406c0-1.3203-0.03125-2.2344-0.09375-2.7344s-0.16797-0.86719-0.3125-1.1094c-0.1875-0.3125-0.44922-0.55469-0.78125-0.73438-0.32422-0.17578-0.69531-0.26562-1.1094-0.26562-1.0234 0-1.8242 0.39844-2.4062 1.1875-0.58594 0.78125-0.875 1.8711-0.875 3.2656v7.5312h-4.8906v-15.312h4.8906v2.2344c0.73828-0.88281 1.5195-1.5391 2.3438-1.9688 0.83203-0.42578 1.75-0.64062 2.75-0.64062 1.7695 0 3.1133 0.54688 4.0312 1.6406 0.91406 1.0859 1.375 2.6562 1.375 4.7188z"/>
  </symbol>
  <symbol id="g" overflow="visible">
   <path d="m2.1875-5.9688v-9.3438h4.9219v1.5312c0 0.83594-0.007813 1.875-0.015625 3.125-0.011719 1.25-0.015625 2.0859-0.015625 2.5 0 1.2422 0.03125 2.1328 0.09375 2.6719 0.070313 0.54297 0.17969 0.93359 0.32812 1.1719 0.20703 0.32422 0.47266 0.57422 0.79688 0.75 0.32031 0.16797 0.69141 0.25 1.1094 0.25 1.0195 0 1.8203-0.39062 2.4062-1.1719 0.58203-0.78125 0.875-1.8672 0.875-3.2656v-7.5625h4.8906v15.312h-4.8906v-2.2188c-0.74219 0.89844-1.5234 1.5586-2.3438 1.9844-0.82422 0.41406-1.7344 0.625-2.7344 0.625-1.7617 0-3.1055-0.53906-4.0312-1.625-0.92969-1.082-1.3906-2.6602-1.3906-4.7344z"/>
  </symbol>
  <symbol id="s" overflow="visible">
   <path d="m16.781-19.766v4.3125c-1.125-0.5-2.2266-0.875-3.2969-1.125-1.0625-0.25781-2.0703-0.39062-3.0156-0.39062-1.25 0-2.1797 0.17969-2.7812 0.53125-0.60547 0.34375-0.90625 0.88281-0.90625 1.6094 0 0.54297 0.20312 0.96875 0.60938 1.2812 0.40625 0.30469 1.1406 0.5625 2.2031 0.78125l2.25 0.45312c2.2695 0.44922 3.8789 1.1406 4.8281 2.0781 0.95703 0.92969 1.4375 2.2461 1.4375 3.9531 0 2.25-0.66797 3.9297-2 5.0312-1.3359 1.0938-3.3711 1.6406-6.1094 1.6406-1.3047 0-2.6055-0.125-3.9062-0.375-1.3047-0.23828-2.6055-0.59766-3.9062-1.0781v-4.4531c1.3008 0.69922 2.5625 1.2266 3.7812 1.5781 1.2188 0.34375 2.3906 0.51562 3.5156 0.51562 1.1562 0 2.0352-0.1875 2.6406-0.5625 0.61328-0.38281 0.92188-0.9375 0.92188-1.6562 0-0.63281-0.21094-1.125-0.625-1.4688-0.41797-0.34375-1.2461-0.65625-2.4844-0.9375l-2.0312-0.4375c-2.043-0.4375-3.5391-1.1328-4.4844-2.0938-0.9375-0.95703-1.4062-2.25-1.4062-3.875 0-2.0312 0.65625-3.5938 1.9688-4.6875s3.1953-1.6406 5.6562-1.6406c1.125 0 2.2734 0.085938 3.4531 0.25 1.1875 0.16797 2.4141 0.42188 3.6875 0.76562z"/>
  </symbol>
  <symbol id="f" overflow="visible">
   <path d="m17.75-9.3281v9.3281h-4.9219v-7.1094c0-1.3438-0.03125-2.2656-0.09375-2.7656s-0.16797-0.86719-0.3125-1.1094c-0.1875-0.3125-0.44922-0.55469-0.78125-0.73438-0.32422-0.17578-0.69531-0.26562-1.1094-0.26562-1.0234 0-1.8242 0.39844-2.4062 1.1875-0.58594 0.78125-0.875 1.8711-0.875 3.2656v7.5312h-4.8906v-21.281h4.8906v8.2031c0.73828-0.88281 1.5195-1.5391 2.3438-1.9688 0.83203-0.42578 1.75-0.64062 2.75-0.64062 1.7695 0 3.1133 0.54688 4.0312 1.6406 0.91406 1.0859 1.375 2.6562 1.375 4.7188z"/>
  </symbol>
  <symbol id="r" overflow="visible">
   <path d="m12.422-21.281v3.2188h-2.7031c-0.6875 0-1.1719 0.125-1.4531 0.375-0.27344 0.25-0.40625 0.6875-0.40625 1.3125v1.0625h4.1875v3.5h-4.1875v11.812h-4.8906v-11.812h-2.4375v-3.5h2.4375v-1.0625c0-1.6641 0.46094-2.8984 1.3906-3.7031 0.92578-0.80078 2.3672-1.2031 4.3281-1.2031z"/>
  </symbol>
  <symbol id="d" overflow="visible">
   <path d="m9.6406-12.188c-1.0859 0-1.9141 0.39062-2.4844 1.1719-0.57422 0.78125-0.85938 1.9062-0.85938 3.375s0.28516 2.5938 0.85938 3.375c0.57031 0.77344 1.3984 1.1562 2.4844 1.1562 1.0625 0 1.875-0.38281 2.4375-1.1562 0.57031-0.78125 0.85938-1.9062 0.85938-3.375s-0.28906-2.5938-0.85938-3.375c-0.5625-0.78125-1.375-1.1719-2.4375-1.1719zm0-3.5c2.6328 0 4.6914 0.71484 6.1719 2.1406 1.4766 1.418 2.2188 3.3867 2.2188 5.9062 0 2.5117-0.74219 4.4805-2.2188 5.9062-1.4805 1.418-3.5391 2.125-6.1719 2.125-2.6484 0-4.7148-0.70703-6.2031-2.125-1.4922-1.4258-2.2344-3.3945-2.2344-5.9062 0-2.5195 0.74219-4.4883 2.2344-5.9062 1.4883-1.4258 3.5547-2.1406 6.2031-2.1406z"/>
  </symbol>
  <symbol id="q" overflow="visible">
   <path d="m16.547-12.766c0.61328-0.94531 1.3477-1.6719 2.2031-2.1719 0.85156-0.5 1.7891-0.75 2.8125-0.75 1.7578 0 3.0977 0.54688 4.0156 1.6406 0.92578 1.0859 1.3906 2.6562 1.3906 4.7188v9.3281h-4.9219v-7.9844-0.35938c0.007813-0.13281 0.015625-0.32031 0.015625-0.5625 0-1.082-0.16406-1.8633-0.48438-2.3438-0.3125-0.48828-0.82422-0.73438-1.5312-0.73438-0.92969 0-1.6484 0.38672-2.1562 1.1562-0.51172 0.76172-0.77344 1.8672-0.78125 3.3125v7.5156h-4.9219v-7.9844c0-1.6953-0.14844-2.7852-0.4375-3.2656-0.29297-0.48828-0.8125-0.73438-1.5625-0.73438-0.9375 0-1.6641 0.38672-2.1719 1.1562-0.51172 0.76172-0.76562 1.8594-0.76562 3.2969v7.5312h-4.9219v-15.312h4.9219v2.2344c0.60156-0.86328 1.2891-1.5156 2.0625-1.9531 0.78125-0.4375 1.6406-0.65625 2.5781-0.65625 1.0625 0 2 0.25781 2.8125 0.76562 0.8125 0.51172 1.4258 1.2305 1.8438 2.1562z"/>
  </symbol>
  <symbol id="p" overflow="visible">
   <path d="m2.5781-20.406h5.875l7.4219 14v-14h4.9844v20.406h-5.875l-7.4219-14v14h-4.9844z"/>
  </symbol>
  <symbol id="o" overflow="visible">
   <path d="m2.5781-20.406h8.7344c2.5938 0 4.582 0.57812 5.9688 1.7344 1.3945 1.1484 2.0938 2.7891 2.0938 4.9219 0 2.1367-0.69922 3.7812-2.0938 4.9375-1.3867 1.1562-3.375 1.7344-5.9688 1.7344h-3.4844v7.0781h-5.25zm5.25 3.8125v5.7031h2.9219c1.0195 0 1.8047-0.25 2.3594-0.75 0.5625-0.5 0.84375-1.2031 0.84375-2.1094 0-0.91406-0.28125-1.6172-0.84375-2.1094-0.55469-0.48828-1.3398-0.73438-2.3594-0.73438z"/>
  </symbol>
  <symbol id="n" overflow="visible">
   <path d="m2.3594-15.312h4.8906v15.031c0 2.0508-0.49609 3.6172-1.4844 4.7031-0.98047 1.082-2.4062 1.625-4.2812 1.625h-2.4219v-3.2188h0.85938c0.92578 0 1.5625-0.21094 1.9062-0.625 0.35156-0.41797 0.53125-1.2461 0.53125-2.4844zm0-5.9688h4.8906v4h-4.8906z"/>
  </symbol>
  <symbol id="m" overflow="visible">
   <path d="m14.719-14.828v3.9844c-0.65625-0.45703-1.3242-0.79688-2-1.0156-0.66797-0.21875-1.3594-0.32812-2.0781-0.32812-1.3672 0-2.4336 0.40234-3.2031 1.2031-0.76172 0.79297-1.1406 1.9062-1.1406 3.3438 0 1.4297 0.37891 2.543 1.1406 3.3438 0.76953 0.79297 1.8359 1.1875 3.2031 1.1875 0.75781 0 1.4844-0.10938 2.1719-0.32812 0.6875-0.22656 1.3203-0.56641 1.9062-1.0156v4c-0.76172 0.28125-1.5391 0.48828-2.3281 0.625-0.78125 0.14453-1.5742 0.21875-2.375 0.21875-2.7617 0-4.9219-0.70703-6.4844-2.125-1.5547-1.4141-2.3281-3.3828-2.3281-5.9062 0-2.5312 0.77344-4.5039 2.3281-5.9219 1.5625-1.4141 3.7227-2.125 6.4844-2.125 0.80078 0 1.5938 0.074219 2.375 0.21875 0.78125 0.13672 1.5547 0.35156 2.3281 0.64062z"/>
  </symbol>
 </defs>
 <g>
  <path d="m384.52 170.46h-96.766c-3.0938 0-5.6016-2.5078-5.6016-5.6016v-96.598c0-2.9727-1.1797-5.8203-3.2812-7.9219s-4.9492-3.2812-7.918-3.2812h-4.4258c-6.1836 0-11.199 5.0156-11.199 11.203v96.711c0 1.4844-0.58984 2.9102-1.6406 3.9609-1.0508 1.0469-2.4727 1.6367-3.9609 1.6367h-96.039c-6.1836 0-11.199 5.0156-11.199 11.203v4.4258-0.003906c0 2.9727 1.1797 5.8203 3.2812 7.9219 2.0977 2.0977 4.9492 3.2773 7.918 3.2773h96.711c1.4883 0 2.9102 0.58984 3.9609 1.6406 1.0508 1.0508 1.6406 2.4766 1.6406 3.9609v96.098c0 2.9688 1.1797 5.8164 3.2812 7.918 2.1016 2.1016 4.9492 3.2812 7.918 3.2812h4.4258c2.9688 0 5.8164-1.1797 7.918-3.2812s3.2812-4.9492 3.2812-7.918v-96.715c0-3.0898 2.5078-5.5977 5.6016-5.5977h96.094c2.9727 0 5.8203-1.1797 7.9219-3.2812 2.0977-2.1016 3.2773-4.9492 3.2773-7.918v-4.4258c-0.26953-5.9883-5.2031-10.703-11.199-10.695z"/>
  <path d="m458.67 434.05c4.6016-26.641-1.4297-54.027-16.801-76.27-13.371-20.301-36.059-32.508-60.367-32.48-8.0977 0.066406-16.148 1.2734-23.91 3.582-1.7695 0.46484-3.6523 0.039062-5.0469-1.1445-1.3945-1.1797-2.125-2.9688-1.9531-4.7891 1.6016-13.168 4.3398-26.168 8.1758-38.863 1.5469-5.5273-1.3281-11.332-6.6641-13.441l-4.1445-1.8477c-2.8359-0.99219-5.9531-0.80469-8.6484 0.51953-2.6953 1.3281-4.7461 3.6836-5.6875 6.5352-4.3633 16.062-7.5664 32.422-9.5781 48.945-0.24609 1.5703-1.1484 2.9648-2.4844 3.832-1.3359 0.86328-2.9766 1.1211-4.5156 0.70313-8.1055-2.5234-16.539-3.8438-25.031-3.9219-24.309-0.027343-46.996 12.18-60.367 32.48-15.371 22.246-21.402 49.629-16.801 76.273 3.3672 20.598 10.324 40.441 20.551 58.633 8.457 15.289 39.762 65.07 86.52 65.07 5.0195 0 10.016-0.58203 14.898-1.7344 4.8828 1.1523 9.8789 1.7344 14.895 1.7344 46.762 0.22656 78.008-49.613 86.465-65.07 10.223-18.23 17.16-38.113 20.496-58.746zm-43.512 46.145c-8.6797 15.625-39.535 62.328-76.609 49.223v0.003906c-1.1406-0.40625-2.3867-0.40625-3.5273 0-37.07 13.105-67.93-33.602-76.609-49.223-14.055-25.367-30.574-71.902-5.6016-107.02 28-38.863 69.215-14.617 80.695-7.1133l0.003906-0.003907c1.8281 1.1602 4.1641 1.1602 5.9922 0 11.199-7.5039 52.754-31.754 80.695 7.1133 25.535 35.113 9.0156 81.648-5.0391 107.02z"/>
  <path d="m563.28 126.22c-0.21484-0.58984-0.33203-1.2148-0.33594-1.8477v-33.207h4.0312c2.9688 0 5.8203-1.1797 7.918-3.2812 2.1016-2.0977 3.2812-4.9492 3.2812-7.918v-60.258c0-2.9688-1.1797-5.8164-3.2812-7.918-2.0977-2.1016-4.9492-3.2812-7.918-3.2812h-129.3c-6.1875 0-11.199 5.0156-11.199 11.199v60.48c0 2.9727 1.1797 5.8203 3.2812 7.9219 2.0977 2.0977 4.9492 3.2773 7.918 3.2773h4.0312v33.266c-0.007813 0.62891-0.12109 1.2539-0.33594 1.8477l-50.68 112.45c-0.40625 1.168-0.61328 2.3984-0.61719 3.6406v61.602-0.003906c0.089844 5.4023 4.0234 9.9727 9.3555 10.863l3.8086 0.67187h-0.003907c3.2266 0.59375 6.5469-0.25781 9.0898-2.3281 2.543-2.0664 4.0508-5.1445 4.1289-8.4219v-57.176c0.003907-0.63281 0.12109-1.2578 0.33594-1.8477l51.016-113.57v-0.003907c0.21484-0.58984 0.32812-1.2148 0.33594-1.8477v-33.879c0-3.0938 2.5078-5.6016 5.5977-5.6016h57.344c1.4883 0 2.9102 0.58984 3.9609 1.6406 1.0508 1.0508 1.6406 2.4766 1.6406 3.9609v33.938c0.007813 0.62891 0.12109 1.2539 0.33594 1.8477l51.016 113.57c0.21484 0.59375 0.32812 1.2188 0.33594 1.8477v280.28c0 1.4844-0.58984 2.9102-1.6406 3.9609-1.0508 1.0469-2.4727 1.6367-3.957 1.6367h-147.84c-3.1523 0.039063-6.1406 1.4023-8.2344 3.7539l-3.7539 4.0898 0.003906-0.003906c-2.75 3.25-3.4258 7.7734-1.7383 11.68 1.6836 3.9062 5.4414 6.5195 9.6875 6.7461h172.71c2.9688 0 5.8164-1.1797 7.918-3.2812 2.1016-2.0977 3.2812-4.9492 3.2812-7.918v-306.21c-0.003906-1.2422-0.21094-2.4727-0.61719-3.6406zm-12.77-68.039c0 1.4844-0.58984 2.9102-1.6406 3.9609-1.0508 1.0508-2.4727 1.6406-3.9609 1.6406h-85.23c-3.0938 0-5.6016-2.5078-5.6016-5.6016v-16.465c0-3.0898 2.5078-5.5977 5.6016-5.5977h85.289c1.4844 0 2.9102 0.58984 3.957 1.6406 1.0508 1.0469 1.6406 2.4727 1.6406 3.957z"/>
  <path d="m176.54 312.48c-34.879-24.629-58.352-62.277-65.117-104.43-6.7617-42.156 3.7617-85.262 29.188-119.56 25.422-34.301 63.605-56.898 105.91-62.688 42.305-5.7852 85.152 5.7266 118.86 31.938 3.9492 2.9062 9.3242 2.9062 13.273 0l2.5742-1.9023c2.6719-2.125 4.2266-5.3516 4.2266-8.7656 0-3.4102-1.5547-6.6367-4.2266-8.7617-31.395-24.34-69.867-37.785-109.59-38.305-39.094-0.54688-77.344 11.395-109.18 34.086-31.84 22.691-55.605 54.949-67.844 92.082-12.238 37.133-12.309 77.199-0.19922 114.38 12.105 37.176 35.758 69.52 67.52 92.32 4.9336 3.4023 11.672 2.3164 15.285-2.4648l1.793-2.5195c3.4766-4.9531 2.3828-11.773-2.4648-15.398z"/>
  <use x="85.371094" y="644" xlink:href="#u"/>
  <use x="105.921875" y="644" xlink:href="#b"/>
  <use x="119.730469" y="644" xlink:href="#a"/>
  <use x="138.71875" y="644" xlink:href="#l"/>
  <use x="157.613281" y="644" xlink:href="#c"/>
  <use x="171" y="644" xlink:href="#a"/>
  <use x="189.988281" y="644" xlink:href="#e"/>
  <use x="219.78125" y="644" xlink:href="#k"/>
  <use x="239.824219" y="644" xlink:href="#j"/>
  <use x="267.824219" y="644" xlink:href="#i"/>
  <use x="289.164062" y="644" xlink:href="#t"/>
  <use x="298.761719" y="644" xlink:href="#h"/>
  <use x="318.695312" y="644" xlink:href="#e"/>
  <use x="338.738281" y="644" xlink:href="#g"/>
  <use x="368.421875" y="644" xlink:href="#s"/>
  <use x="388.585938" y="644" xlink:href="#f"/>
  <use x="408.519531" y="644" xlink:href="#b"/>
  <use x="422.328125" y="644" xlink:href="#a"/>
  <use x="441.320312" y="644" xlink:href="#a"/>
  <use x="85.371094" y="672" xlink:href="#r"/>
  <use x="97.554687" y="672" xlink:href="#b"/>
  <use x="111.363281" y="672" xlink:href="#d"/>
  <use x="130.597656" y="672" xlink:href="#q"/>
  <use x="169.523437" y="672" xlink:href="#c"/>
  <use x="182.90625" y="672" xlink:href="#f"/>
  <use x="202.839844" y="672" xlink:href="#a"/>
  <use x="231.578125" y="672" xlink:href="#p"/>
  <use x="255.011719" y="672" xlink:href="#d"/>
  <use x="274.25" y="672" xlink:href="#g"/>
  <use x="294.183594" y="672" xlink:href="#h"/>
  <use x="323.863281" y="672" xlink:href="#o"/>
  <use x="344.386719" y="672" xlink:href="#b"/>
  <use x="358.195312" y="672" xlink:href="#d"/>
  <use x="377.429688" y="672" xlink:href="#n"/>
  <use x="387.027344" y="672" xlink:href="#a"/>
  <use x="406.019531" y="672" xlink:href="#m"/>
  <use x="422.617188" y="672" xlink:href="#c"/>
 </g>
</svg>
